<mxfile host="app.diagrams.net" agent="Mozilla/5.0 (Windows NT 10.0; Win64; x64) AppleWebKit/537.36 (KHTML, like Gecko) Chrome/135.0.0.0 Safari/537.36" version="26.2.12">
  <diagram name="Page-1" id="ylKalXSRPxzygM9W7IFD">
    <mxGraphModel dx="1044" dy="562" grid="1" gridSize="10" guides="1" tooltips="1" connect="1" arrows="1" fold="1" page="1" pageScale="1" pageWidth="850" pageHeight="1100" math="0" shadow="0">
      <root>
        <mxCell id="0" />
        <mxCell id="1" parent="0" />
        <mxCell id="lUaDjujMFLyh2YTsVgI8-40" value="" style="edgeStyle=orthogonalEdgeStyle;rounded=0;orthogonalLoop=1;jettySize=auto;html=1;fontSize=14;" edge="1" parent="1" source="lUaDjujMFLyh2YTsVgI8-41" target="lUaDjujMFLyh2YTsVgI8-44">
          <mxGeometry relative="1" as="geometry" />
        </mxCell>
        <mxCell id="lUaDjujMFLyh2YTsVgI8-41" value="Start" style="strokeWidth=2;html=1;shape=mxgraph.flowchart.start_1;whiteSpace=wrap;fontSize=14;" vertex="1" parent="1">
          <mxGeometry x="375" y="450" width="100" height="60" as="geometry" />
        </mxCell>
        <mxCell id="lUaDjujMFLyh2YTsVgI8-42" value="End" style="strokeWidth=2;html=1;shape=mxgraph.flowchart.start_1;whiteSpace=wrap;fontSize=14;" vertex="1" parent="1">
          <mxGeometry x="375" y="1500" width="100" height="60" as="geometry" />
        </mxCell>
        <mxCell id="lUaDjujMFLyh2YTsVgI8-43" value="" style="edgeStyle=orthogonalEdgeStyle;rounded=0;orthogonalLoop=1;jettySize=auto;html=1;fontSize=14;" edge="1" parent="1" source="lUaDjujMFLyh2YTsVgI8-44" target="lUaDjujMFLyh2YTsVgI8-49">
          <mxGeometry relative="1" as="geometry" />
        </mxCell>
        <mxCell id="lUaDjujMFLyh2YTsVgI8-44" value="int i = 1" style="whiteSpace=wrap;html=1;strokeWidth=2;fontSize=14;" vertex="1" parent="1">
          <mxGeometry x="365" y="550" width="120" height="60" as="geometry" />
        </mxCell>
        <mxCell id="lUaDjujMFLyh2YTsVgI8-45" value="" style="edgeStyle=orthogonalEdgeStyle;rounded=0;orthogonalLoop=1;jettySize=auto;html=1;fontSize=14;" edge="1" parent="1" source="lUaDjujMFLyh2YTsVgI8-49" target="lUaDjujMFLyh2YTsVgI8-51">
          <mxGeometry relative="1" as="geometry" />
        </mxCell>
        <mxCell id="lUaDjujMFLyh2YTsVgI8-46" value="True" style="edgeLabel;html=1;align=center;verticalAlign=middle;resizable=0;points=[];fontSize=14;" vertex="1" connectable="0" parent="lUaDjujMFLyh2YTsVgI8-45">
          <mxGeometry x="-0.29" relative="1" as="geometry">
            <mxPoint as="offset" />
          </mxGeometry>
        </mxCell>
        <mxCell id="lUaDjujMFLyh2YTsVgI8-47" value="" style="edgeStyle=orthogonalEdgeStyle;rounded=0;orthogonalLoop=1;jettySize=auto;html=1;fontSize=14;" edge="1" parent="1" source="lUaDjujMFLyh2YTsVgI8-49" target="lUaDjujMFLyh2YTsVgI8-67">
          <mxGeometry relative="1" as="geometry">
            <Array as="points">
              <mxPoint x="630" y="690" />
              <mxPoint x="630" y="1420" />
            </Array>
          </mxGeometry>
        </mxCell>
        <mxCell id="lUaDjujMFLyh2YTsVgI8-48" value="False" style="edgeLabel;html=1;align=center;verticalAlign=middle;resizable=0;points=[];fontSize=14;" vertex="1" connectable="0" parent="lUaDjujMFLyh2YTsVgI8-47">
          <mxGeometry x="-0.8694" y="-1" relative="1" as="geometry">
            <mxPoint as="offset" />
          </mxGeometry>
        </mxCell>
        <mxCell id="lUaDjujMFLyh2YTsVgI8-49" value="i &amp;lt;= 5" style="rhombus;whiteSpace=wrap;html=1;strokeWidth=2;fontSize=14;" vertex="1" parent="1">
          <mxGeometry x="385" y="650" width="80" height="80" as="geometry" />
        </mxCell>
        <mxCell id="lUaDjujMFLyh2YTsVgI8-50" value="" style="edgeStyle=orthogonalEdgeStyle;rounded=0;orthogonalLoop=1;jettySize=auto;html=1;fontSize=14;" edge="1" parent="1" source="lUaDjujMFLyh2YTsVgI8-51" target="lUaDjujMFLyh2YTsVgI8-59">
          <mxGeometry relative="1" as="geometry" />
        </mxCell>
        <mxCell id="lUaDjujMFLyh2YTsVgI8-51" value="int j = i" style="whiteSpace=wrap;html=1;strokeWidth=2;fontSize=14;" vertex="1" parent="1">
          <mxGeometry x="365" y="770" width="120" height="60" as="geometry" />
        </mxCell>
        <mxCell id="lUaDjujMFLyh2YTsVgI8-52" value="" style="edgeStyle=orthogonalEdgeStyle;rounded=0;orthogonalLoop=1;jettySize=auto;html=1;fontSize=14;" edge="1" parent="1" source="lUaDjujMFLyh2YTsVgI8-59" target="lUaDjujMFLyh2YTsVgI8-61">
          <mxGeometry relative="1" as="geometry" />
        </mxCell>
        <mxCell id="lUaDjujMFLyh2YTsVgI8-53" value="True" style="edgeLabel;html=1;align=center;verticalAlign=middle;resizable=0;points=[];fontSize=14;" vertex="1" connectable="0" parent="lUaDjujMFLyh2YTsVgI8-52">
          <mxGeometry x="-0.152" y="-2" relative="1" as="geometry">
            <mxPoint as="offset" />
          </mxGeometry>
        </mxCell>
        <mxCell id="lUaDjujMFLyh2YTsVgI8-54" value="" style="edgeStyle=orthogonalEdgeStyle;rounded=0;orthogonalLoop=1;jettySize=auto;html=1;fontSize=14;" edge="1" parent="1" source="lUaDjujMFLyh2YTsVgI8-59" target="lUaDjujMFLyh2YTsVgI8-65">
          <mxGeometry relative="1" as="geometry">
            <Array as="points">
              <mxPoint x="560" y="910" />
              <mxPoint x="560" y="1270" />
            </Array>
          </mxGeometry>
        </mxCell>
        <mxCell id="lUaDjujMFLyh2YTsVgI8-55" value="False" style="edgeLabel;html=1;align=center;verticalAlign=middle;resizable=0;points=[];fontSize=14;" vertex="1" connectable="0" parent="lUaDjujMFLyh2YTsVgI8-54">
          <mxGeometry x="-0.8332" y="2" relative="1" as="geometry">
            <mxPoint as="offset" />
          </mxGeometry>
        </mxCell>
        <mxCell id="lUaDjujMFLyh2YTsVgI8-56" style="edgeStyle=orthogonalEdgeStyle;rounded=0;orthogonalLoop=1;jettySize=auto;html=1;exitX=0;exitY=0.5;exitDx=0;exitDy=0;" edge="1" parent="1" source="lUaDjujMFLyh2YTsVgI8-59">
          <mxGeometry relative="1" as="geometry">
            <mxPoint x="385" y="910" as="targetPoint" />
          </mxGeometry>
        </mxCell>
        <mxCell id="lUaDjujMFLyh2YTsVgI8-57" style="edgeStyle=orthogonalEdgeStyle;rounded=0;orthogonalLoop=1;jettySize=auto;html=1;exitX=0;exitY=0.5;exitDx=0;exitDy=0;" edge="1" parent="1" source="lUaDjujMFLyh2YTsVgI8-59">
          <mxGeometry relative="1" as="geometry">
            <mxPoint x="380" y="910" as="targetPoint" />
          </mxGeometry>
        </mxCell>
        <mxCell id="lUaDjujMFLyh2YTsVgI8-58" style="edgeStyle=orthogonalEdgeStyle;rounded=0;orthogonalLoop=1;jettySize=auto;html=1;exitX=0;exitY=0.5;exitDx=0;exitDy=0;" edge="1" parent="1" source="lUaDjujMFLyh2YTsVgI8-59">
          <mxGeometry relative="1" as="geometry">
            <mxPoint x="380" y="910" as="targetPoint" />
          </mxGeometry>
        </mxCell>
        <mxCell id="lUaDjujMFLyh2YTsVgI8-59" value="j &amp;lt;= 5" style="rhombus;whiteSpace=wrap;html=1;strokeWidth=2;fontSize=14;" vertex="1" parent="1">
          <mxGeometry x="385" y="870" width="80" height="80" as="geometry" />
        </mxCell>
        <mxCell id="lUaDjujMFLyh2YTsVgI8-60" value="" style="edgeStyle=orthogonalEdgeStyle;rounded=0;orthogonalLoop=1;jettySize=auto;html=1;fontSize=14;" edge="1" parent="1" source="lUaDjujMFLyh2YTsVgI8-61" target="lUaDjujMFLyh2YTsVgI8-63">
          <mxGeometry relative="1" as="geometry" />
        </mxCell>
        <mxCell id="lUaDjujMFLyh2YTsVgI8-61" value="Print j" style="shape=parallelogram;perimeter=parallelogramPerimeter;whiteSpace=wrap;html=1;fixedSize=1;strokeWidth=2;fontSize=14;" vertex="1" parent="1">
          <mxGeometry x="365" y="1000" width="120" height="60" as="geometry" />
        </mxCell>
        <mxCell id="lUaDjujMFLyh2YTsVgI8-62" value="" style="edgeStyle=orthogonalEdgeStyle;rounded=0;orthogonalLoop=1;jettySize=auto;html=1;fontSize=14;entryX=0;entryY=0.5;entryDx=0;entryDy=0;" edge="1" parent="1" target="lUaDjujMFLyh2YTsVgI8-59">
          <mxGeometry relative="1" as="geometry">
            <mxPoint x="405" y="1130" as="sourcePoint" />
            <mxPoint x="380" y="910" as="targetPoint" />
            <Array as="points">
              <mxPoint x="280" y="1130" />
              <mxPoint x="280" y="910" />
            </Array>
          </mxGeometry>
        </mxCell>
        <mxCell id="lUaDjujMFLyh2YTsVgI8-63" value="j++" style="whiteSpace=wrap;html=1;strokeWidth=2;fontSize=14;" vertex="1" parent="1">
          <mxGeometry x="365" y="1100" width="120" height="60" as="geometry" />
        </mxCell>
        <mxCell id="lUaDjujMFLyh2YTsVgI8-64" value="" style="edgeStyle=orthogonalEdgeStyle;rounded=0;orthogonalLoop=1;jettySize=auto;html=1;fontSize=14;" edge="1" parent="1" target="lUaDjujMFLyh2YTsVgI8-49">
          <mxGeometry relative="1" as="geometry">
            <mxPoint x="365" y="1260" as="sourcePoint" />
            <mxPoint x="380" y="690" as="targetPoint" />
            <Array as="points">
              <mxPoint x="365" y="1261" />
              <mxPoint x="170" y="1261" />
              <mxPoint x="170" y="690" />
            </Array>
          </mxGeometry>
        </mxCell>
        <mxCell id="lUaDjujMFLyh2YTsVgI8-65" value="i++" style="whiteSpace=wrap;html=1;strokeWidth=2;fontSize=14;" vertex="1" parent="1">
          <mxGeometry x="365" y="1240" width="120" height="60" as="geometry" />
        </mxCell>
        <mxCell id="lUaDjujMFLyh2YTsVgI8-66" value="" style="edgeStyle=orthogonalEdgeStyle;rounded=0;orthogonalLoop=1;jettySize=auto;html=1;fontSize=14;" edge="1" parent="1" source="lUaDjujMFLyh2YTsVgI8-67" target="lUaDjujMFLyh2YTsVgI8-42">
          <mxGeometry relative="1" as="geometry" />
        </mxCell>
        <mxCell id="lUaDjujMFLyh2YTsVgI8-67" value="" style="ellipse;whiteSpace=wrap;html=1;strokeWidth=2;fontSize=14;" vertex="1" parent="1">
          <mxGeometry x="385" y="1380" width="80" height="80" as="geometry" />
        </mxCell>
        <mxCell id="lUaDjujMFLyh2YTsVgI8-68" value="&lt;div style=&quot;color: #cccccc;background-color: #1f1f1f;font-family: Consolas, &#39;Courier New&#39;, monospace;font-weight: normal;font-size: 14px;line-height: 19px;white-space: pre;&quot;&gt;&lt;div&gt;&lt;span style=&quot;color: #6a9955;&quot;&gt;// Print the following pattern:&lt;/span&gt;&lt;/div&gt;&lt;div&gt;&lt;span style=&quot;color: #6a9955;&quot;&gt;// 1 2 3 4 5&lt;/span&gt;&lt;/div&gt;&lt;div&gt;&lt;span style=&quot;color: #6a9955;&quot;&gt;// 2 3 4 5&lt;/span&gt;&lt;/div&gt;&lt;div&gt;&lt;span style=&quot;color: #6a9955;&quot;&gt;// 3 4 5&lt;/span&gt;&lt;/div&gt;&lt;div&gt;&lt;span style=&quot;color: #6a9955;&quot;&gt;// 4 5 &lt;/span&gt;&lt;/div&gt;&lt;div&gt;&lt;span style=&quot;color: #6a9955;&quot;&gt;// 5&lt;/span&gt;&lt;/div&gt;&lt;br&gt;&lt;div&gt;&lt;span style=&quot;color: #6a9955;&quot;&gt;// Step 1: Start&lt;/span&gt;&lt;/div&gt;&lt;div&gt;&lt;span style=&quot;color: #6a9955;&quot;&gt;// Step 2: Initialize a variable i with 1&lt;/span&gt;&lt;/div&gt;&lt;div&gt;&lt;span style=&quot;color: #6a9955;&quot;&gt;// Step 3: Repeat steps 4-10 while i is less than or equal to 5&lt;/span&gt;&lt;/div&gt;&lt;div&gt;&lt;span style=&quot;color: #6a9955;&quot;&gt;// Step 4: Initialize a variable j with i&lt;/span&gt;&lt;/div&gt;&lt;div&gt;&lt;span style=&quot;color: #6a9955;&quot;&gt;// Step 5: Repeat steps 6-8 while j is less than or equal to 5&lt;/span&gt;&lt;/div&gt;&lt;div&gt;&lt;span style=&quot;color: #6a9955;&quot;&gt;// Step 6: Print j&lt;/span&gt;&lt;/div&gt;&lt;div&gt;&lt;span style=&quot;color: #6a9955;&quot;&gt;// Step 7: Increment j by 1&lt;/span&gt;&lt;/div&gt;&lt;div&gt;&lt;span style=&quot;color: #6a9955;&quot;&gt;// Step 8: Go to step 5&lt;/span&gt;&lt;/div&gt;&lt;div&gt;&lt;span style=&quot;color: #6a9955;&quot;&gt;// Step 9: Increment i by 1&lt;/span&gt;&lt;/div&gt;&lt;div&gt;&lt;span style=&quot;color: #6a9955;&quot;&gt;// Step 10: Go to step 3&lt;/span&gt;&lt;/div&gt;&lt;div&gt;&lt;span style=&quot;color: #6a9955;&quot;&gt;// Step 11: End&lt;/span&gt;&lt;/div&gt;&lt;/div&gt;" style="text;whiteSpace=wrap;html=1;" vertex="1" parent="1">
          <mxGeometry x="40" y="30" width="520" height="370" as="geometry" />
        </mxCell>
      </root>
    </mxGraphModel>
  </diagram>
</mxfile>
